<svg width="19" height="17" viewBox="0 0 19 17" fill="none" xmlns="http://www.w3.org/2000/svg">
<path opacity="0.7" d="M5.08925 9.728C5.81458 9.94133 6.36925 10.3467 6.75325 10.944C7.17992 11.4987 7.39325 12.1813 7.39325 12.992C7.39325 14.016 7.07325 14.848 6.43325 15.488C5.79325 16.128 5.00392 16.448 4.06525 16.448C3.04125 16.448 2.20925 16.128 1.56925 15.488C0.971917 14.8053 0.67325 13.9733 0.67325 12.992C0.67325 12.48 0.715917 11.9893 0.80125 11.52C0.92925 11.008 1.16392 10.2827 1.50525 9.344L4.19325 0.511997H7.26525L5.08925 9.728ZM15.9693 9.728C16.6946 9.94133 17.2493 10.3467 17.6333 10.944C18.0599 11.4987 18.2733 12.1813 18.2733 12.992C18.2733 14.016 17.9533 14.848 17.3133 15.488C16.6733 16.128 15.8839 16.448 14.9453 16.448C13.9213 16.448 13.0893 16.128 12.4493 15.488C11.8519 14.8053 11.5533 13.9733 11.5533 12.992C11.5533 12.48 11.5959 11.9893 11.6813 11.52C11.8093 11.008 12.0439 10.2827 12.3853 9.344L15.0733 0.511997H18.1453L15.9693 9.728Z" fill="white"/>
</svg>
