<svg width="185" height="62" viewBox="0 0 185 62" fill="none" xmlns="http://www.w3.org/2000/svg">
<path d="M57.6632 34.8496C56.2373 30.5671 53.1685 27.0264 49.132 25.0065C45.0955 22.9866 40.4219 22.653 36.1394 24.0789C31.8569 25.5049 28.3163 28.5737 26.2964 32.6102C24.2765 36.6466 23.9428 41.3202 25.3688 45.6027L41.516 40.2262L57.6632 34.8496Z" fill="#6651E4"/>
<path d="M4.7498 24.4001C5.51264 28.8489 8.0115 32.8124 11.6966 35.4187C15.3818 38.025 19.9514 39.0607 24.4001 38.2978C28.8489 37.535 32.8123 35.0361 35.4187 31.351C38.025 27.6658 39.0606 23.0962 38.2978 18.6475L21.5238 21.5238L4.7498 24.4001Z" fill="#B1A6EF" fill-opacity="0.71"/>
<path d="M79.648 27.912H76.064V25.8H85.824V27.912H82.24V37H79.648V27.912ZM89.9386 25.8H92.5306V37H89.9386V25.8ZM105.312 25.8H109.872C111.056 25.8 112.101 26.04 113.008 26.52C113.915 26.9893 114.619 27.6507 115.12 28.504C115.621 29.3467 115.872 30.312 115.872 31.4C115.872 32.488 115.621 33.4587 115.12 34.312C114.619 35.1547 113.915 35.816 113.008 36.296C112.101 36.7653 111.056 37 109.872 37H105.312V25.8ZM109.808 35.976C110.789 35.976 111.648 35.784 112.384 35.4C113.12 35.0053 113.691 34.4667 114.096 33.784C114.501 33.0907 114.704 32.296 114.704 31.4C114.704 30.504 114.501 29.7147 114.096 29.032C113.691 28.3387 113.12 27.8 112.384 27.416C111.648 27.0213 110.789 26.824 109.808 26.824H106.496V35.976H109.808ZM128.339 33.144H121.299C121.363 34.0187 121.699 34.728 122.307 35.272C122.915 35.8053 123.683 36.072 124.611 36.072C125.134 36.072 125.614 35.9813 126.051 35.8C126.488 35.608 126.867 35.3307 127.187 34.968L127.827 35.704C127.454 36.152 126.984 36.4933 126.419 36.728C125.864 36.9627 125.251 37.08 124.579 37.08C123.715 37.08 122.947 36.8987 122.275 36.536C121.614 36.1627 121.096 35.6507 120.723 35C120.35 34.3493 120.163 33.6133 120.163 32.792C120.163 31.9707 120.339 31.2347 120.691 30.584C121.054 29.9333 121.544 29.4267 122.163 29.064C122.792 28.7013 123.496 28.52 124.275 28.52C125.054 28.52 125.752 28.7013 126.371 29.064C126.99 29.4267 127.475 29.9333 127.827 30.584C128.179 31.224 128.355 31.96 128.355 32.792L128.339 33.144ZM124.275 29.496C123.464 29.496 122.782 29.7573 122.227 30.28C121.683 30.792 121.374 31.464 121.299 32.296H127.267C127.192 31.464 126.878 30.792 126.323 30.28C125.779 29.7573 125.096 29.496 124.275 29.496ZM135.643 37.08C134.96 37.08 134.304 36.984 133.675 36.792C133.056 36.5893 132.571 36.3387 132.219 36.04L132.731 35.144C133.083 35.4213 133.526 35.6507 134.059 35.832C134.592 36.0027 135.147 36.088 135.723 36.088C136.491 36.088 137.056 35.9707 137.419 35.736C137.792 35.4907 137.979 35.1493 137.979 34.712C137.979 34.4027 137.878 34.1627 137.675 33.992C137.472 33.8107 137.216 33.6773 136.907 33.592C136.598 33.496 136.187 33.4053 135.675 33.32C134.992 33.192 134.443 33.064 134.027 32.936C133.611 32.7973 133.254 32.568 132.955 32.248C132.667 31.928 132.523 31.4853 132.523 30.92C132.523 30.216 132.816 29.64 133.403 29.192C133.99 28.744 134.806 28.52 135.851 28.52C136.395 28.52 136.939 28.5947 137.483 28.744C138.027 28.8827 138.475 29.0693 138.827 29.304L138.331 30.216C137.638 29.736 136.811 29.496 135.851 29.496C135.126 29.496 134.576 29.624 134.203 29.88C133.84 30.136 133.659 30.472 133.659 30.888C133.659 31.208 133.76 31.464 133.963 31.656C134.176 31.848 134.438 31.992 134.747 32.088C135.056 32.1733 135.483 32.264 136.027 32.36C136.699 32.488 137.238 32.616 137.643 32.744C138.048 32.872 138.395 33.0907 138.683 33.4C138.971 33.7093 139.115 34.136 139.115 34.68C139.115 35.416 138.806 36.0027 138.187 36.44C137.579 36.8667 136.731 37.08 135.643 37.08ZM146.879 28.52C147.978 28.52 148.821 28.7973 149.407 29.352C149.994 29.896 150.287 30.7067 150.287 31.784V37H149.199V35.688C148.943 36.1253 148.565 36.4667 148.063 36.712C147.573 36.9573 146.986 37.08 146.303 37.08C145.365 37.08 144.618 36.856 144.063 36.408C143.509 35.96 143.231 35.368 143.231 34.632C143.231 33.9173 143.487 33.3413 143.999 32.904C144.522 32.4667 145.349 32.248 146.479 32.248H149.151V31.736C149.151 31.0107 148.949 30.4613 148.543 30.088C148.138 29.704 147.546 29.512 146.767 29.512C146.234 29.512 145.722 29.6027 145.231 29.784C144.741 29.9547 144.319 30.1947 143.967 30.504L143.455 29.656C143.882 29.2933 144.394 29.016 144.991 28.824C145.589 28.6213 146.218 28.52 146.879 28.52ZM146.479 36.184C147.119 36.184 147.669 36.04 148.127 35.752C148.586 35.4533 148.927 35.0267 149.151 34.472V33.096H146.511C145.071 33.096 144.351 33.5973 144.351 34.6C144.351 35.0907 144.538 35.48 144.911 35.768C145.285 36.0453 145.807 36.184 146.479 36.184ZM158.877 26.008C158.386 26.008 158.013 26.1413 157.757 26.408C157.511 26.6747 157.389 27.0693 157.389 27.592V28.584H159.981V29.544H157.421V37H156.285V29.544H154.781V28.584H156.285V27.544C156.285 26.776 156.503 26.168 156.941 25.72C157.389 25.272 158.018 25.048 158.829 25.048C159.149 25.048 159.458 25.096 159.757 25.192C160.055 25.2773 160.306 25.4053 160.509 25.576L160.125 26.424C159.794 26.1467 159.378 26.008 158.877 26.008ZM162.797 28.584H163.933V37H162.797V28.584ZM163.373 26.744C163.138 26.744 162.941 26.664 162.781 26.504C162.621 26.344 162.541 26.152 162.541 25.928C162.541 25.7147 162.621 25.528 162.781 25.368C162.941 25.208 163.138 25.128 163.373 25.128C163.607 25.128 163.805 25.208 163.965 25.368C164.125 25.5173 164.205 25.6987 164.205 25.912C164.205 26.1467 164.125 26.344 163.965 26.504C163.805 26.664 163.607 26.744 163.373 26.744ZM177.156 33.144H170.116C170.18 34.0187 170.516 34.728 171.124 35.272C171.732 35.8053 172.5 36.072 173.428 36.072C173.951 36.072 174.431 35.9813 174.868 35.8C175.306 35.608 175.684 35.3307 176.004 34.968L176.644 35.704C176.271 36.152 175.802 36.4933 175.236 36.728C174.682 36.9627 174.068 37.08 173.396 37.08C172.532 37.08 171.764 36.8987 171.092 36.536C170.431 36.1627 169.914 35.6507 169.54 35C169.167 34.3493 168.98 33.6133 168.98 32.792C168.98 31.9707 169.156 31.2347 169.508 30.584C169.871 29.9333 170.362 29.4267 170.98 29.064C171.61 28.7013 172.314 28.52 173.092 28.52C173.871 28.52 174.57 28.7013 175.188 29.064C175.807 29.4267 176.292 29.9333 176.644 30.584C176.996 31.224 177.172 31.96 177.172 32.792L177.156 33.144ZM173.092 29.496C172.282 29.496 171.599 29.7573 171.044 30.28C170.5 30.792 170.191 31.464 170.116 32.296H176.084C176.01 31.464 175.695 30.792 175.14 30.28C174.596 29.7573 173.914 29.496 173.092 29.496Z" fill="#6651E4"/>
</svg>
